<svg xmlns="http://www.w3.org/2000/svg" viewBox="0 0 494.6 507.2"><title>scooter</title><g id="cheveux_bas" data-name="cheveux bas"><path d="M547.3,161.1,575,134l2.7,11.9s-.2,16.9-24,24.9c0,0,20.2-19.5,14-19.9,0,0-10.6,14.2-14.3,15.8,0,0,2.6-9.4,1.3-9.7S554,164.6,547.3,161.1Z" transform="translate(-214 -42.9)" style="fill:#7a4920;stroke:#231f20;stroke-miterlimit:10"/></g><g id="cou"><polygon points="367.5 129.9 366.8 119.7 358.3 112.1 366.1 96.4 379.2 113.2 367.5 129.9" style="fill:#e7a26c;stroke:#391213;stroke-miterlimit:10"/><path d="M584,183.4s14.3-11.7,17.2-20.8l-8.6-8.2L580.1,174Z" transform="translate(-214 -42.9)" style="fill:#eea86e;stroke:#231f20;stroke-miterlimit:10"/></g><g id="visage"><polygon points="409.2 86.3 408.2 94.5 391.1 88.5 394.1 82.2 409.2 86.3" style="fill:#040404"/><path d="M647.7,145.6s-2.7,8.8-5.9,9.9S615,142.9,615,142.9l-3.1-8.9Z" transform="translate(-214 -42.9)" style="fill:#fff;stroke:#231f20;stroke-miterlimit:10"/><path id="langue" d="M608.9,144.2c1.4.5,10.8,7.6,13,9.8s3.5,3.1,4.1,4.5,3.6,3.2,3.8,5.2-2.1,4.1-2.7,4.8S608.9,144.2,608.9,144.2Z" transform="translate(-214 -42.9)" style="fill:#ea5162;stroke:#231f20;stroke-miterlimit:10"/><path d="M633.7,109v6.9s13.6,8.3,28,6.9c0,0,.6,13.9-12.3,15.4v7.9s-28-7.4-32.5-11.3c0,0-1.1-1.1,0-1.8l4.1-.2a6,6,0,0,0-2.8-2.1c-2-.7-5.7-.2-7.4,0,0,0,4.4,1.6,2.8,3.5,0,0,3.7,30,19.7,35.7,0,0-6.1,11.6-14.5,10.2,0,0-11.7-6.6-9-6.1,0,0-9-50-17.2-55.4,0,0,10.9-14.9,22.4-16.3S629,93.4,629,93.4l7.8,4.4Z" transform="translate(-214 -42.9)" style="fill:#eea86e;stroke:#231f20;stroke-miterlimit:10"/><path d="M624.9,178s-14.2-2.5-27.6-58.2c0,0,20.4-15,25.9-8.1l5.1,8.7s-1-27.8-11.9-25.2-25.3,20.4-25.3,20.4L609.7,174l8,5.1c.3-.1,1.7.7,2.2.6a5.9,5.9,0,0,1,2-.3A6,6,0,0,0,624.9,178Z" transform="translate(-214 -42.9)" style="fill:#bb8560"/><path d="M628.4,103.8s-13-.1-14.9,7.6c0,0-.5,1.2,1,.5s1.4-6.1,13.9-6A1.3,1.3,0,0,0,628.4,103.8Z" transform="translate(-214 -42.9)" style="fill:#231f20"/><path d="M627.4,111.7s-4.8-2.3-6.9,4.9c0,0-3.9-1.2-5.5-.7l5.5,1.9h2.1v.8a2.8,2.8,0,0,0,3.7,0v1.2h1.1S628.4,114.4,627.4,111.7Z" transform="translate(-214 -42.9)" style="fill:#040404"/><path d="M609,115.6l8.8,1.8c3.5.9,6.9,1.8,10.1,2.8l.4,1.5a10.2,10.2,0,0,0-1.7-1.3c-2-1.1-3.5-.9-6.6-1.4s-2.6-.7-5.5-1.1a43.9,43.9,0,0,0-5.5-.4Z" transform="translate(-214 -42.9)" style="fill:#f3dbc7"/><path d="M633.4,116.8a29.3,29.3,0,0,0,12.6,8.7,16.4,16.4,0,0,0,5.2,1,18.1,18.1,0,0,0,9.9-2.9,38.1,38.1,0,0,1-4.8,0c-1-.1-3.6-.3-7-.9-.6-.2-2.7-.6-5.5-1.5A64.4,64.4,0,0,1,633.4,116.8Z" transform="translate(-214 -42.9)" style="fill:#f3dbc7"/><path d="M661.1,124.6a22.8,22.8,0,0,1-18,6s2.3,5.6,12.9,1.7C656,132.3,660.4,131.2,661.1,124.6Z" transform="translate(-214 -42.9)" style="fill:#9a6d4f"/><path d="M592.5,118.6l-1.7,1.2s12.1,27,15.3,53c0,0,1.4,4,2.9,2.6S598.1,121.4,592.5,118.6Z" transform="translate(-214 -42.9)" style="fill:#7ac18d;stroke:#231f20;stroke-miterlimit:10"/><polygon points="368.8 86.3 368.8 91.1 366.1 88.8 368.8 86.3" style="fill:none;stroke:#2c4c9b;stroke-miterlimit:10"/><path id="ombre_oreille" data-name="ombre oreille" d="M602.3,166.5s-18.6-14.1-20.8-24c0,0-3.5,8-12.6,0,0,0,5-15.5,18.8-20.8C587.7,121.7,604.8,136.2,602.3,166.5Z" transform="translate(-214 -42.9)" style="fill:none;stroke:#2c4c9b;stroke-miterlimit:10"/><path id="oreille" d="M602.3,166.5s-18.6-14.1-20.8-24c0,0-3.5,8-12.6,0,0,0,5-15.5,18.8-20.8C587.7,121.7,604.8,136.2,602.3,166.5Z" transform="translate(-214 -42.9)" style="fill:#eea86e;stroke:#231f20;stroke-miterlimit:10"/><path d="M589.5,119.8l-.9,1s14.7,31.2,14,53.2l3.5-1.2S598.7,124.8,589.5,119.8Z" transform="translate(-214 -42.9)" style="fill:#fff;stroke:#231f20;stroke-miterlimit:10"/><polygon points="371.2 81.4 370.2 94.5 361 88.5 371.2 81.4" style="fill:#935a25;stroke:#231f20;stroke-miterlimit:10"/><path d="M647.2,146.1l-1.4,3c-2.4-.7-25-6.8-31.1-10.5l-.5-4S615,136.2,647.2,146.1Z" transform="translate(-214 -42.9)" style="fill:#b0adaf"/></g><g id="casque"><path d="M621.6,87.3S594.4,56,568.7,69.4,527.8,97.2,524.3,106s-6.5,42.8,36.2,38.3c0,0,40.6-51.3,64.7-50.8Z" transform="translate(-214 -42.9)" style="fill:#ced629;stroke:#231f20;stroke-miterlimit:10"/><path d="M560,144.7v4.4s28-28.8,34.5-32.9,17.1-13,32.7-17.2l-3-7.6a105.9,105.9,0,0,0-18.4,9.3,96.1,96.1,0,0,0-14,10.6c-2.8,2.6-3.8,3.8-8,7.4s-3.7,3.2-6.4,5.8-2.1,2.7-4.9,5.9-3.6,3.5-5.8,5.8A70,70,0,0,0,560,144.7Z" transform="translate(-214 -42.9)" style="fill:#ced629;stroke:#003932;stroke-miterlimit:10"/><path d="M596.9,112l1.2,1s23.6-16,29-14.9l-2.1-5s-21.1-18.8-28.1-20.7-19-2.3-22.1.9c0,0,17.9,3.6,22.7,7,0,0,16.9,9.8,19.1,15.3l.8,1.3s-17.6,8.4-21.3,13.3Z" transform="translate(-214 -42.9)" style="fill:#949e39"/><path d="M562.3,66.5s4.7,0,5.3,3.9a9.1,9.1,0,0,1-1.1,6.2,4.1,4.1,0,0,1-2.8,0,8,8,0,0,1-2-2.6s2.1,14.1-1.2,14.7-3.9-.9-3.9-.9-.3,5-3.2,4.8-5.4-3-5.4-3-1.8,4.8-6.2,1-7-6.8-5.6-13.1c0,0,4-1.5,6.1.2,0,0-1.6-5.1,2-6.3s7.5,1.4,7.5,1.4-.6-1,1.4-4.2l6.5.2S561.1,66.8,562.3,66.5Z" transform="translate(-214 -42.9)" style="fill:#eaa56e;stroke:#231f20;stroke-miterlimit:10"/><path d="M556.1,71.6s-.7,7.7,0,8,2.2,3.5,3.2,3.8.5,2.9.5,2.9-3.9-2.8-5-5.5-.9-7.8-.8-9.2S554.9,69.9,556.1,71.6Z" transform="translate(-214 -42.9)" style="fill:#f3dbc7"/><path d="M535.3,101.6l-6.8,7s8.2,12.9,21.9,17.2c0,0,14.9-3.3,16.7-5.5,0,0-31-12.5-29.8-18.7Z" transform="translate(-214 -42.9)" style="fill:#fff"/><path d="M526.3,112.4s14.1,13.6,21,13.7c0,0-16.6,3-18.2,2.3S525.2,116.6,526.3,112.4Z" transform="translate(-214 -42.9)" style="fill:#fff"/><path d="M539.8,80.3s-.1,4.5,1.9,6l2.6,2.6s.4.9-.8.7-7.1-4.7-5.7-10C537.8,79.6,540.4,79.6,539.8,80.3Z" transform="translate(-214 -42.9)" style="fill:#f3dbc7"/><path d="M563.6,69.7s-1.7.5-.9,2.5c0,0,1.2,2.6,2.1,1.8s.3,1.3-.5,1.3-3.3-2.4-3.3-3.8S562.1,69.5,563.6,69.7Z" transform="translate(-214 -42.9)" style="fill:#f3dbc7"/><path d="M545.8,76.7s1.3,6.4,2.8,7.9,3.3,3.9,4.1,4.6-.9,1.3-.9,1.3-4.9-3.7-6-6.7a25.2,25.2,0,0,1-1.4-7.6C544.5,75.7,545.8,76.7,545.8,76.7Z" transform="translate(-214 -42.9)" style="fill:#f3dbc7"/><path d="M611.5,89.9" transform="translate(-214 -42.9)" style="fill:#ced629"/></g><g id="cheveux_haut" data-name="cheveux haut"><path d="M614.9,105.3a41.2,41.2,0,0,0,11.4-4.4c5.5-3.2.7,0,.7,0l7-.4-1,7.8s19.4,5.1,20.7-3.5V98.1s8.5.2,12.1-13.5l-1.2-15.8s-3.8,20.1-12.9,20.5c0,0,20.3-16.6-2.2-44.5,0,0,7.7,36-5.9,40.6,0,0,19.1-25.9-9.2-37.5,0,0-.3,2.9-5.4,4.6,0,0,8.2,10.9,4.3,18.4,0,0-.4.8-2.1-1.2,0,0,.8,17.8-3.5,20.8,0,0,4.8-10.5-14.2-16.6C613.5,73.9,631.8,100,614.9,105.3Z" transform="translate(-214 -42.9)" style="fill:#583921;stroke:#231f20;stroke-miterlimit:10"/><path d="M633.6,51.8s14.9,7.3,6.1,25.5c0,0-1.4-20-7.7-23.9C632,53.4,629.4,52,633.6,51.8Z" transform="translate(-214 -42.9)" style="fill:#c49c7d"/><path d="M644.2,61.6s4.4,21.5-19.3,40.5C624.9,102.1,652.8,86,644.2,61.6Z" transform="translate(-214 -42.9)" style="fill:#040404"/><path d="M637.3,51.8s11.9,6.7,11.1,14.7c0,0-7.4-13.4-11.3-13.9C637.1,52.6,635.8,52,637.3,51.8Z" transform="translate(-214 -42.9)" style="fill:#c49c7d"/><path d="M655.6,61.6s.7,13-.8,14.3a12.2,12.2,0,0,0,3.1-3.3c.9-1.8-.6-15.2-3.1-17.6C654.8,55,655.5,60.6,655.6,61.6Z" transform="translate(-214 -42.9)" style="fill:#c49c7d"/><path d="M663.1,79.2s-2.8,9-6.6,9.8c0,0,2.6,1.6,4.3-.5S663.1,79.2,663.1,79.2Z" transform="translate(-214 -42.9)" style="fill:#c49c7d"/><path d="M620.2,79.2s6.8,4.4,6.1,8.1c0,0-2-2.6-3.8-3.2A48.7,48.7,0,0,1,620.2,79.2Z" transform="translate(-214 -42.9)" style="fill:#c49c7d"/><path d="M652.9,97.8s-5.2,4.8-11.1,3-7.8-.3-7.8-.3l-1,7.8s19.3,4,20-1.6a77.5,77.5,0,0,0,.7-8.6Z" transform="translate(-214 -42.9)" style="fill:#804e20;stroke:#231f20;stroke-miterlimit:10"/></g><g id="drapeau"><path d="M322,44.8S436.8,176,473.5,328.1h0l-6.5,6.8s-39.5-160-151.1-283.1Z" transform="translate(-214 -42.9)" style="fill:#7a7d7d;stroke:#231f20;stroke-miterlimit:10"/><path d="M334.3,55S293,73.6,217.1,164.6c0,0,61.4-45.3,152.3-63Z" transform="translate(-214 -42.9)" style="fill:#682e1e;stroke:#231f20;stroke-miterlimit:10"/><path d="M293.3,86.3l7.5-1.7-4.7,8.8,19.8-9-34.8,34.2,22,1.8c-53.2,20-86,44.2-86,44.2,35.8-43,63.9-69.8,83.6-86.2A96.9,96.9,0,0,0,293.3,86.3Z" transform="translate(-214 -42.9)" style="fill:#f1947a"/><path d="M315.9,69.1a15.2,15.2,0,0,0,7.2-2.6l23.1,35.6s-37,11.3-43.1,18.3l-22-1.8,34.8-34.2-19.8,9,4.7-8.8-7.5,1.7S307.2,69.6,315.9,69.1Z" transform="translate(-214 -42.9)" style="fill:#e65025"/></g><g id="buste"><polygon points="293.9 175 345.9 127.3 353.1 129 350.6 170.9 302.8 186.9 293.9 175" style="fill:#0aa54a"/><path d="M510.1,220.5s4.8,4.4,13,1.3l42.2-19.4-2.8,12.1s-25,12.5-47.2,14.8Z" transform="translate(-214 -42.9)" style="fill:#22211f"/></g><g id="roue_arrière" data-name="roue arrière"><path d="M451.1,484.1s-24.4,56.9-66,61.8c0,0-15.1,3.8-18.4-11.2,0,0-5.4-53.2,14.6-77Z" transform="translate(-214 -42.9)" style="fill:#272525"/><path d="M371.3,486.9,426,503.4s5.6,3.2-2.8,12.1-39.4,30.2-43.7,30.4-10.8.3-13.4-14.2S371.3,486.9,371.3,486.9Z" transform="translate(-214 -42.9)" style="fill:#2e2e2f"/><path d="M416.5,494.9s-14.9,13.8-24.9,11.3c0,0-3.7-4.2-2.8-25.6,0,0-5.9,19.7-19.1,15l14.3,4.3-16.7,6.6,15.7-1.7-16.9,12.6,20.8-5.8-20.3,22.2v.9l22.1-18.3L377,545.9l15.5-26.8,2.3,18.2,2.9-20.9S416.1,504.9,416.5,494.9Z" transform="translate(-214 -42.9)" style="fill:#b9b8b9"/></g><g id="roue_avant" data-name="roue avant"><path d="M684.8,450.1s-4.1,78.8-88.1,99.9c0,0-10.3,2-9.8-14.7s.2-75.3,39.7-85.2h58.2" transform="translate(-214 -42.9)" style="fill:#272525"/><path d="M620,481.2s64.5-26,35.8,17.6-49.7,48.5-49.7,48.5l-9.4,2.7s-11.7,2.2-9.7-16.2,1.3-28.4,3.6-37.4Z" transform="translate(-214 -42.9)" style="fill:#2e2e2f"/><path d="M659.4,460.9s-14.2,34.3-23.3,39.2c0,0-5.8,20.6-3.5,26.8l-5.6-17-16.3,35.7-1.8.7,10.3-33s-26.6,33.6-27.2,35.9l-2.3-2s17.5-34.2,25.7-38l-27.7,8.1.8-3.2s17.7-13.1,23.5-13l-22-1.7.7-1.9s24.3.4,21.7-11.2c0,0,2.2-11.7,3.6-11.4s1,4.7,1,4.7-3.2,18.2,3,17.9a26.2,26.2,0,0,0,11.3-3.4S657,467.6,659.4,460.9Z" transform="translate(-214 -42.9)" style="fill:#ababac"/></g><g id="scooter"><path d="M622.8,301.6l-16.6-6.5,67.6,97.5v3.5l-10.1,13.2-47.4,21.8-48.8,63-98.7-9.6,10-55-16.5-35.8s-62.7,3.3-74.8,11.5,0-.9,0-.9,19-28.1,45.9-36.3l10.8.4,54.2,16.7s-1,57,12.4,61.4l31.3.6s67.3-46.7,84.8-70.3l-47.6-86.9,11.6-19.2s29.8-26.4,33.9-25.2C624.8,245.5,614.1,285.2,622.8,301.6Z" transform="translate(-214 -42.9)" style="fill:#e31e28;stroke:#231f20;stroke-miterlimit:10"/><path d="M707.6,455s-27.9-52.1-62.8-49.3-80.1,88.4-80.1,88.4h2.8S645.3,431.6,707.6,455Z" transform="translate(-214 -42.9)" style="fill:#e31e28;stroke:#231f20;stroke-miterlimit:10"/><path d="M666.8,412.6s-18.5-11-36.5,1.1S608.8,435,608.8,435l8.6-14.2S645.6,394.2,666.8,412.6Z" transform="translate(-214 -42.9)" style="fill:#fff;stroke:#fff;stroke-miterlimit:10"/><path d="M616.3,286.4v4l-18.9-2,56.9,93.3-19.8,27.9s7.8-7.6,24.6-.6l11.6-14.5L601.1,292.3l2.9-1.8,17,5.7-1.8-9.8Z" transform="translate(-214 -42.9)" style="fill:#b22029"/><path d="M562.7,445.8s32.8-34.1,31.7-37c0,0,20.1-19.2,33.6-28.7l2.7,4.8Z" transform="translate(-214 -42.9)" style="fill:#d41f2f"/><path d="M588.4,295.4l49.4,84.9S584,439,562.7,449.8c0,0,67.8-70.4,67.8-68.6S582.3,298.2,588.4,295.4Z" transform="translate(-214 -42.9)" style="fill:#fff"/><path d="M679.7,437.5s-10.4-15.1-20.7-15.9-30.1,9.4-30.1,9.4S662.6,416,679.7,437.5Z" transform="translate(-214 -42.9)" style="fill:#fff"/><path d="M509.9,447.3s1.3,8.9,24.8,8c0,0-5.4-3.4-4-8Z" transform="translate(-214 -42.9)" style="fill:#d41f2c"/><path d="M530.2,353.9s-10.8,23.8-10.8,32.9c0,0-62.9-5.2-65.1,0s0-1.1,0-1.1l-21-18.3s11.3-9.8,44.6-16.5Z" transform="translate(-214 -42.9)" style="fill:#66442d"/><polyline points="227.2 325.5 246 340 296.7 334.3 303.9 319.6 227.2 325.5" style="fill:#925c34"/><path d="M463.4,391.2c9,11.1,18.4,43.8,18.4,43.8l-20,45.6L343.7,465.3l12.2-35.8Z" transform="translate(-214 -42.9)" style="fill:#e31e28"/><path d="M394.6,426.3s82.2-12.6,81.5,12.1l-.9,4.4s-23.5-14.1-88.6-4.3c0,0-30.2,1.7-38.9,20.1,0,0,35.9,6.3,40.2,11.7l-53.6-6.1s.2-27.5,9.7-28.8Z" transform="translate(-214 -42.9)" style="fill:#fff;stroke:#231f20;stroke-miterlimit:10"/><path d="M354.2,432.6s56-27.6,111.7-37.5c0,0-49.6-3-70.1,3.7l4.9-9.9s-20,11.6-27.8,23.3c0,0-12,4.4-13.5,6.3C359.4,418.5,355.3,422,354.2,432.6Z" transform="translate(-214 -42.9)" style="fill:#fff;stroke:#231f20;stroke-miterlimit:10"/><path d="M408.7,381.7c1-.8-60,18.7-88.7,34.7l-14.6-12.5-17.9,3.9-6.4-9,27.8-20.7L326.6,406s95.3-37.9,100.6-36.2l-18.5,11.9" transform="translate(-214 -42.9)" style="fill:#e31e28;stroke:#000;stroke-miterlimit:10"/><path d="M461.3,396.3s21.2,13.6,14.6,47.8c0,0-11.6-8.2-18-6.5,0,0,23.4,22.9-2.2,33.8,0,0-53.3-5.9-62.2-3.7L462,486.9s40.5-21.2,11.5-92.7C473.5,394.2,461.7,392.5,461.3,396.3Z" transform="translate(-214 -42.9)" style="fill:#b22029"/><path d="M592.7,460.9l-25,32.2-98.9-8.6s14.4-17.9,15.5-38.7c0,0-.1-43.2-10.9-48l1.9-.8c17.3,9.5,21.5,79.6,21.5,79.6,50.1,17.5,87.9-15.7,87.9-15.7" transform="translate(-214 -42.9)" style="fill:#b22029"/><path d="M561.5,292.7l9.4,8.9s13.5,8.9,16.8-11c0,0-2.3-17.5-19.2-15.2C568.5,275.4,554.3,280.9,561.5,292.7Z" transform="translate(-214 -42.9)" style="fill:#231e20"/><path d="M573.6,280.5s-5.1-1.6-7.1,3a18.8,18.8,0,0,0-1.9,8s3.5,5.3,8.2,6.3,8.5,3.5,10.4-7S573.6,280.5,573.6,280.5Z" transform="translate(-214 -42.9)" style="fill:#919396"/><path d="M570.4,284.7s8.9,7,4.1,7.2l-1.4,2.4h4.7l.8-5.9S573.9,281.5,570.4,284.7Z" transform="translate(-214 -42.9)" style="fill:#221e1f"/><path d="M634.9,237.8a8.5,8.5,0,0,0-4,0s-20.6,31.4-8.1,63.8c0,0,25.4-19,24.9-29.8s-11.5-25.1-12.8-26.4,0-.5,0-.5v-6.7" transform="translate(-214 -42.9)" style="fill:#231e20;stroke:#ed1c24;stroke-miterlimit:10"/><path d="M633.2,256.4s10,5,10.8,9.7-12.1,25.4-18.8,28.2C625.2,294.3,623,258.3,633.2,256.4Z" transform="translate(-214 -42.9)" style="fill:#f3e602"/><path d="M634.9,237.8s-18.7-5-44.2,29h0l2.6,2.2s27.2-26.8,31.6-23.1c0,0-2.2,5.4-2.1,9v.5C624.2,259.3,629,236.1,634.9,237.8Z" transform="translate(-214 -42.9)" style="fill:#fff;stroke:#000;stroke-miterlimit:10"/><path d="M603.5,283.9l-17.4,8.8s-1.6-12.9-6.8-13.8,19.9-4.5,19.9-4.5Z" transform="translate(-214 -42.9)" style="fill:#383938"/><path d="M433.3,373.6a92.3,92.3,0,0,1,16.1,16.7l43.6-1.4s.2,31.9,4.1,38.1,0-.9,0-.9-2.8-39.7-.2-40.8-41.5-3.7-41.5-3.7L434.1,368l-28.4,17.7S428,372.1,433.3,373.6Z" transform="translate(-214 -42.9)" style="fill:#cb202d"/><path d="M517.9,362.4s-77.9,2.9-77.2,7.5l15,13-2.5-8.8s39.8-9.4,62.1-6.1Z" transform="translate(-214 -42.9)" style="fill:#c7ac99"/><path d="M474.6,393.8s30.8,67-10,93.1H461S502.4,470.7,474.6,393.8Z" transform="translate(-214 -42.9)" style="fill:#272525"/></g><g id="bras"><polygon points="344.6 152.1 333.3 161.6 347.8 160.3 347.8 158.5 361.7 158.2 361.5 154.9 344.6 152.1" style="fill:#d2202a;stroke:#1d1d1b;stroke-miterlimit:10"/><path d="M557.1,197.8h20l-3.3-30.9s-6-10.7-16.1,12.1Z" transform="translate(-214 -42.9)" style="fill:#0aa54a;stroke:#1d1d1b;stroke-miterlimit:10"/><path d="M584.5,192.2l-3-29.6-10.7-9.3s-14.4,18.7-13,24.5c0,0,10.9-25.7,16-5.1l2.2,32.9Z" transform="translate(-214 -42.9)" style="fill:#231e20"/><path d="M575.8,158.7s1.5,4.6-3.3,3.8-16.8-5.6-16.8-5.6l5.9-4.5S572.7,155.9,575.8,158.7Z" transform="translate(-214 -42.9)" style="fill:#d2202a;stroke:#1d1d1b;stroke-miterlimit:10"/><path d="M575,195s9.7,71.5,11.7,71.2c0,0,22.2,3.3,22.8,5.8,0,0,2,5.6.9,8.4,0,0-9,8.1-9.1,5.5,0-.6.9-7.4-1.2-7.6,0,0-22.4,4.3-22.7,3.7s-3.8-8.3-1.3-10.1c0,0-12.2-32.6-12.4-37.1s0-.9,0-.9l-2.2-34.2Z" transform="translate(-214 -42.9)" style="fill:#eea86e"/><path d="M581,269.4s-19.2-41.3-16-48.6l-1.4,11.8,12.1,38.3s-1.2,8.1,1.4,10.2c0,0,2.9,2.1,8.2-.1C585.3,281,574.1,278.8,581,269.4Z" transform="translate(-214 -42.9)" style="fill:#f3dbc7"/></g><g id="boite_pizza" data-name="boite pizza"><path d="M317.7,372.7l9.8,32.9s122.8-51.7,138.4-48.5,2.6-1,2.6-1l-11.6-19.5Z" transform="translate(-214 -42.9)" style="fill:#d6b796;stroke:#000;stroke-miterlimit:10"/><polygon points="229.8 309.1 211.6 305.1 259.6 296.1 259.6 311.1 229.8 323.1 229.8 309.1" style="fill:#967555;stroke:#231f20;stroke-miterlimit:10"/><polygon points="82.1 300.4 86.9 337.2 102.6 337.2 175.9 313.4 238.2 301.5 238.2 281 129 284.8 82.1 300.4" style="fill:#e7b886;stroke:#000;stroke-miterlimit:10"/><polygon points="259.6 298.9 232.5 302.3 232.5 279.2 259.6 279.2 259.6 298.9" style="fill:#ab8867;stroke:#231f20;stroke-miterlimit:10"/><path d="M265.3,320.2l5.5,15.9s94.2-27.4,156.4-21.5V294.4S296.1,299.7,265.3,320.2Z" transform="translate(-214 -42.9)" style="fill:#e4b683"/><polygon points="242.1 246.6 242.1 271.7 207.1 271.7 207.1 249.8 242.1 246.6" style="fill:#ab8867;stroke:#231f20;stroke-miterlimit:10"/><path d="M265.3,336.2l9.6,22.3s125.9-42.3,171.6-29.3V314.6l-64.4-2.5Z" transform="translate(-214 -42.9)" style="fill:#c49869;stroke:#231f20;stroke-miterlimit:10"/><polygon points="262.1 271.7 223.7 271.7 223.7 286.6 262.1 285.1 262.1 271.7" style="fill:#967555;stroke:#231f20;stroke-miterlimit:10"/><path d="M463.4,278.9v16.5l-50.1,2.4V282Z" transform="translate(-214 -42.9)" style="fill:#ab8867;stroke:#231f20;stroke-miterlimit:10"/><polygon points="199.3 239.5 199.3 254.5 169.9 258.9 37.5 292.2 34.1 274 157.6 244.3 192.1 240.1 199.3 239.5" style="fill:#d6b796;stroke:#231f20;stroke-miterlimit:10"/></g><g id="pantalon"><path d="M508.8,216.8s6.3,11.4,8.4,12.3l-3,5s-10.3-10-10.6-11.3S506.9,217.4,508.8,216.8Z" transform="translate(-214 -42.9)" style="fill:#0083a0;stroke:#000;stroke-miterlimit:10"/><polygon points="296.4 179.6 294.4 182.1 294.4 184.1 297.1 183.6 298.9 181 297.7 179 296.4 179.6" style="fill:#859ba1"/><path d="M503.8,221.9s-33.5,46.4-34.3,100.9c0,0-1.5,14.9-.9,16.2s12.1-14,30.7-11.2c0,0,3.9-91.7,14.9-93.7l-5.3-6.2Z" transform="translate(-214 -42.9)" style="fill:#00677d;stroke:#000;stroke-miterlimit:10"/><path d="M508.4,229.4s-21.7,87.9-18.7,94c0,0-10,5.8-11.8,8.7,0,0,11.5-6.9,21.4-4.3,0,0,5.8-92.8,13.7-93.7Z" transform="translate(-214 -42.9)" style="fill:#064551"/><path d="M502.5,327.6v8.8l-11.2.9s-23.4,14.1-23.4,16.7l-4.5-14.9,29.8-15.2Z" transform="translate(-214 -42.9)" style="fill:#005f75;stroke:#000;stroke-miterlimit:10"/><path d="M484.6,329.5c.7.4,6.7,0,6.7,0s1.7,2.6-3.3,5.4-13.1,8.5-13.4,11l17.8-10.6,6.4.3v-6.1Z" transform="translate(-214 -42.9)" style="fill:#004854"/><path d="M503.7,335.3s42.1-2.9,33.2,19.7L467,356.7l1.8-8.7S492.8,332.5,503.7,335.3Z" transform="translate(-214 -42.9)" style="fill:#231e20"/><path d="M522.6,337.7s9.8.5,5.4,3.9c0,0-26.1,5.6-38.4-.9l.3-1.2A131.5,131.5,0,0,1,522.6,337.7Z" transform="translate(-214 -42.9)" style="fill:#fff;stroke:#231f20;stroke-miterlimit:10"/></g></svg>